<svg xmlns="http://www.w3.org/2000/svg" xmlns:xlink="http://www.w3.org/1999/xlink" width="1200" height="1200" viewBox="0 0 1200 1200"><g><g transform="translate(600 600) scale(0.69 0.69) rotate(0) translate(-600 -600)" style="fill:#007db8"><svg fill="#007db8" xmlns="http://www.w3.org/2000/svg" viewBox="0 0 96 96" x="0px" y="0px"><title>Artboard 31</title><g><path d="M42.813,24.5469A23.9906,23.9906,0,0,0,40,70.6V61.8086a15.9217,15.9217,0,0,1,1.1367-28.2148A2.0011,2.0011,0,0,1,44,35.3984V46h8V35.3984a2.0011,2.0011,0,0,1,2.8633-1.8046A15.9217,15.9217,0,0,1,56,61.8086V70.6a23.9963,23.9963,0,0,0-13.187-46.053Z"></path><path d="M60,48a11.83,11.83,0,0,0-4-8.9062V46a4,4,0,0,1-4,4H44a4,4,0,0,1-4-4V39.0938a11.9329,11.9329,0,0,0,4,20.18V71.6387a22.3229,22.3229,0,0,0,8,0l0-12.3645A11.9453,11.9453,0,0,0,60,48Z"></path><path d="M90,40H85.1152a37.4452,37.4452,0,0,0-5.2089-12.59l3.45-3.4541a2,2,0,0,0-.0009-2.8272l-8.4864-8.4844a2.0059,2.0059,0,0,0-2.8281,0l-3.4492,3.4493A37.4766,37.4766,0,0,0,56,10.8828V6a2,2,0,0,0-2-2H42a2,2,0,0,0-2,2v4.8828a37.4766,37.4766,0,0,0-12.5918,5.211L23.959,12.6445a1.9993,1.9993,0,0,0-2.8281,0l-8.4854,8.4834a2.001,2.001,0,0,0-.001,2.8291L16.0938,27.41A37.4434,37.4434,0,0,0,10.8848,40H6a2,2,0,0,0-2,2V54a2,2,0,0,0,2,2h4.8848a37.4434,37.4434,0,0,0,5.209,12.59L12.6445,72.043a2.001,2.001,0,0,0,.001,2.8291l8.4854,8.4834a2.0058,2.0058,0,0,0,2.8283,0l3.449-3.4489A37.4764,37.4764,0,0,0,40,85.1172V90a2,2,0,0,0,2,2H54a2,2,0,0,0,2-2V85.1172a37.4764,37.4764,0,0,0,12.5918-5.2109l3.4492,3.4492a1.9993,1.9993,0,0,0,2.8281,0l8.4864-8.4844a2,2,0,0,0,.0009-2.8272l-3.45-3.4541A37.4452,37.4452,0,0,0,85.1152,56H90a2,2,0,0,0,2-2V42A2,2,0,0,0,90,40ZM75.4739,53.4941A28.0177,28.0177,0,1,1,42.52,20.5234,27.956,27.956,0,0,1,75.4739,53.4941Z"></path></g></svg></g></g></svg>